<svg width="44" height="45" viewBox="0 0 44 45" fill="none" xmlns="http://www.w3.org/2000/svg">
<path fill-rule="evenodd" clip-rule="evenodd" d="M19.192 1.45499C20.0199 0.817682 21.0101 0.499757 22 0.5C22.9899 0.499757 23.9801 0.817682 24.808 1.45499L27.1553 3.25729L30.0969 2.87021C32.167 2.5974 34.1585 3.75094 34.9571 5.67597L36.0872 8.41332L38.8204 9.54179L38.8243 9.54341C40.7494 10.3421 41.9026 12.3347 41.6298 14.4047L41.2431 17.3438L43.0464 19.6925C43.5229 20.313 43.821 21.025 43.9403 21.76C44.0273 22.2958 44.0192 22.8439 43.9158 23.3776C43.783 24.0636 43.4931 24.7258 43.0464 25.3075L41.2431 27.6562L41.6298 30.5953C41.9026 32.6653 40.7494 34.6579 38.8243 35.4566L38.8204 35.4582L36.0872 36.5867L34.9571 39.324C34.1585 41.2491 32.167 42.4026 30.0969 42.1298L27.1553 41.7427L24.808 43.545C23.9801 44.1823 22.9899 44.5002 22 44.5C21.0101 44.5002 20.0199 44.1823 19.192 43.545L16.8447 41.7427L13.9031 42.1298C11.833 42.4026 9.84147 41.2491 9.04288 39.324L7.91284 36.5867L5.17958 35.4582L5.17568 35.4566C3.25062 34.6579 2.09744 32.6653 2.3702 30.5953L2.7569 27.6562L0.953644 25.3075C0.434945 24.632 0.127571 23.8482 0.0321839 23.0443C-0.10617 21.8788 0.201653 20.6718 0.953644 19.6925L2.7569 17.3438L2.3702 14.4047C2.09744 12.3347 3.25062 10.3421 5.17568 9.54341L5.17958 9.54179L7.91284 8.41332L9.04288 5.67597C9.84147 3.75094 11.833 2.5974 13.9031 2.87021L16.8447 3.25729L19.192 1.45499ZM30.4142 18.9142C31.1953 18.1332 31.1953 16.8668 30.4142 16.0858C29.6332 15.3047 28.3668 15.3047 27.5858 16.0858L20 23.6716L17.4142 21.0858C16.6332 20.3047 15.3668 20.3047 14.5858 21.0858C13.8047 21.8668 13.8047 23.1332 14.5858 23.9142L18.5858 27.9142C19.3668 28.6953 20.6332 28.6953 21.4142 27.9142L30.4142 18.9142Z" fill="#249F1E"/>
</svg>
