<svg width="12" height="13" viewBox="0 0 12 13" fill="none" xmlns="http://www.w3.org/2000/svg">
<circle cx="6" cy="6.5" r="6" fill="white"/>
<path d="M6 0.5C2.68629 0.5 0 3.18629 0 6.5C0 9.81371 2.68629 12.5 6 12.5C9.31371 12.5 12 9.81371 12 6.5C12 3.18629 9.31371 0.5 6 0.5ZM5.26106 3.13875C5.26106 2.94348 5.33863 2.75621 5.47671 2.61813C5.61479 2.48005 5.80206 2.40248 5.99733 2.40248C6.1926 2.40248 6.37988 2.48005 6.51796 2.61813C6.65603 2.75621 6.7336 2.94348 6.73361 3.13875V7.40167C6.73361 7.59694 6.65603 7.78421 6.51796 7.92229C6.37988 8.06037 6.1926 8.13794 5.99733 8.13794C5.80206 8.13794 5.61479 8.06037 5.47671 7.92229C5.33863 7.78421 5.26106 7.59694 5.26106 7.40167V3.13875ZM6.64557 10.3281C6.49667 10.475 6.30149 10.5657 6.09323 10.5849C5.88496 10.6042 5.67647 10.5506 5.50321 10.4335C5.32995 10.3163 5.20262 10.1428 5.14288 9.94235C5.08313 9.74191 5.09466 9.52697 5.1755 9.33408C5.25634 9.14118 5.4015 8.98225 5.5863 8.8843C5.77109 8.78635 5.98411 8.75544 6.18913 8.79682C6.39414 8.8382 6.57849 8.94931 6.71083 9.11127C6.84317 9.27323 6.91532 9.47603 6.91501 9.68518C6.91601 9.80501 6.89264 9.92379 6.84632 10.0343C6.80001 10.1448 6.73171 10.2448 6.64557 10.3281Z" fill="#E74444"/>
</svg>
