<svg width="12" height="13" viewBox="0 0 12 13" fill="none" xmlns="http://www.w3.org/2000/svg">
<path fill-rule="evenodd" clip-rule="evenodd" d="M6 0.5C4.81331 0.5 3.65328 0.851894 2.66658 1.51118C1.67989 2.17047 0.910851 3.10754 0.456725 4.2039C0.00259938 5.30025 -0.11622 6.50665 0.115291 7.67054C0.346802 8.83443 0.918247 9.90352 1.75736 10.7426C2.59648 11.5818 3.66557 12.1532 4.82946 12.3847C5.99335 12.6162 7.19975 12.4974 8.2961 12.0433C9.39246 11.5891 10.3295 10.8201 10.9888 9.83342C11.6481 8.84672 12 7.68669 12 6.5C11.9983 4.90924 11.3656 3.38412 10.2407 2.25928C9.11588 1.13444 7.59077 0.501743 6 0.5ZM8.79254 5.51866L5.90121 8.53512C5.83129 8.60786 5.74744 8.66576 5.65465 8.70537C5.56186 8.74498 5.46203 8.76547 5.36114 8.76564C5.16991 8.76675 4.98572 8.69354 4.84742 8.56147L3.23381 7.04665C3.15717 6.98047 3.09471 6.89948 3.05018 6.80853C3.00565 6.71759 2.97998 6.61858 2.97471 6.51746C2.96944 6.41634 2.98467 6.31519 3.0195 6.22011C3.05433 6.12503 3.10803 6.03798 3.17738 5.96419C3.24672 5.8904 3.33027 5.8314 3.42301 5.79074C3.51575 5.75008 3.61575 5.7286 3.717 5.72758C3.81826 5.72657 3.91867 5.74605 4.0122 5.78485C4.10573 5.82364 4.19045 5.88096 4.26125 5.95335L5.34138 6.96103L7.71241 4.47805C7.78073 4.40669 7.86245 4.34949 7.95288 4.30972C8.04331 4.26994 8.14069 4.24837 8.23946 4.24623C8.33823 4.24409 8.43646 4.26142 8.52853 4.29724C8.6206 4.33306 8.70472 4.38667 8.77607 4.45499C8.84743 4.52332 8.90462 4.60503 8.9444 4.69547C8.98418 4.7859 9.00575 4.88328 9.00789 4.98205C9.01003 5.08082 8.9927 5.17905 8.95688 5.27112C8.92106 5.36319 8.86745 5.4473 8.79912 5.51866H8.79254Z" fill="#65D65C"/>
</svg>
