<svg width="42" height="43" viewBox="0 0 42 43" fill="none" xmlns="http://www.w3.org/2000/svg">
<path fill-rule="evenodd" clip-rule="evenodd" d="M22.3975 3.7296C21.5078 3.33395 20.492 3.33395 19.6022 3.7296C18.915 4.03516 18.4686 4.57338 18.158 5.01193C17.8526 5.44312 17.5256 6.00801 17.166 6.62926L2.94648 31.1902C2.58543 31.8137 2.25734 32.3804 2.03487 32.8612C1.80878 33.3499 1.5635 34.0069 1.64167 34.7567C1.74283 35.7269 2.25116 36.6086 3.04015 37.1823C3.64988 37.6256 4.34131 37.7425 4.87754 37.7917C5.40515 37.8401 6.05988 37.84 6.78036 37.84H35.2193C35.9398 37.84 36.5946 37.8401 37.1222 37.7917C37.6584 37.7425 38.3499 37.6256 38.9596 37.1823C39.7486 36.6086 40.2569 35.7269 40.3581 34.7567C40.4363 34.0069 40.191 33.3499 39.9649 32.8612C39.7424 32.3804 39.4144 31.8138 39.0533 31.1904L24.8337 6.6292C24.4741 6.00798 24.1472 5.4431 23.8418 5.01193C23.5311 4.57337 23.0847 4.03516 22.3975 3.7296ZM22.7199 16.34C22.7199 15.3901 21.9499 14.62 20.9999 14.62C20.05 14.62 19.2799 15.3901 19.2799 16.34V23.22C19.2799 24.1699 20.05 24.94 20.9999 24.94C21.9499 24.94 22.7199 24.1699 22.7199 23.22V16.34ZM20.9999 28.38C20.05 28.38 19.2799 29.1501 19.2799 30.1C19.2799 31.0499 20.05 31.82 20.9999 31.82H21.0171C21.9671 31.82 22.7371 31.0499 22.7371 30.1C22.7371 29.1501 21.9671 28.38 21.0171 28.38H20.9999Z" fill="#FF3927"/>
</svg>
